{"title":"Ellie Idol Bed Fuck POV","uid":9006298,"size":296856315,"categoryP":"porn","categoryS":"movie_clips","magnet":"?xt=urn:btih:f14cc557199879116252101b19196903c4b30881&amp;dn=Ellie+Idol+Bed+Fuck+POV&amp;tr=udp%3A%2F%2Ftracker.openbittorrent.com%3A80&amp;tr=udp%3A%2F%2Fopen.demonii.com%3A1337&amp;tr=udp%3A%2F%2Ftracker.coppersurfer.tk%3A6969&amp;tr=udp%3A%2F%2Fexodus.desync.com%3A6969","seeders":0,"leechers":11,"uploader":"HalcyonJedi","files":2,"time":1381035442,"description":" &lt;a href=&quot;http://bayimg.com/BAAecAafi&quot; rel=&quot;nofollow&quot; target=&quot;_NEW&quot;&gt;http://bayimg.com/BAAecAafi&lt;/a&gt;\n\n\n\nA POV style sex scene with lots of dick sucking and fucking in many positions. I then get my stomach plastered with jizz.\n\nFormat : Windows Media\nFile size : 282 MiB\nDuration : 18mn 5s\nOverall bit rate mode : Variable\nOverall bit rate : 2 182 Kbps\nMaximum Overall bit rate : 2 222 Kbps\nEncoded date : UTC 2011-08-04 05:27:29.937\n\nVideo\nID : 2\nFormat : VC-1\nFormat profile : Advanced@L1\nCodec ID : WVC1\nCodec ID/Hint : Microsoft\nDescription of the codec : Windows Media Video 9 Advanced Profile\nDuration : 18mn 5s\nBit rate mode : Constant\nBit rate : 2 078 Kbps\nWidth : 720 pixels\nHeight : 480 pixels\nDisplay aspect ratio : 4:3\nOriginal display aspect ratio : 3:2\nFrame rate : 29.970 fps\nStandard : NTSC\nChroma subsampling : 4:2:0\nBit depth : 8 bits\nScan type : Progressive\nCompression mode : Lossy\nBits/(Pixel*Frame) : 0.201\nStream size : 269 MiB (95%)\nNumberOfFrames : 32528\n\nAudio\nID : 1\nFormat : WMA\nFormat version : Version 2\nCodec ID : 161\nCodec ID/Info : Windows Media Audio\nDescription of the codec : Windows Media Audio 9.2 - 96 kbps, 48 kHz, stereo 2-pass VBR\nDuration : 18mn 5s\nBit rate mode : Variable\nBit rate : 97.0 Kbps\nChannel(s) : 2 channels\nSampling rate : 48.0 KHz\nBit depth : 16 bits\nStream size : 12.6 MiB (4%)\nNumberOfFrames : 3214\n","torrent":{"xt":"urn:btih:f14cc557199879116252101b19196903c4b30881","amp;dn":"Ellie+Idol+Bed+Fuck+POV","amp;tr":["udp%3A%2F%2Ftracker.openbittorrent.com%3A80","udp%3A%2F%2Fopen.demonii.com%3A1337","udp%3A%2F%2Ftracker.coppersurfer.tk%3A6969","udp%3A%2F%2Fexodus.desync.com%3A6969"],"infoHash":"f14cc557199879116252101b19196903c4b30881","infoHashBuffer":{"type":"Buffer","data":[241,76,197,87,25,152,121,17,98,82,16,27,25,25,105,3,196,179,8,129]},"announce":[],"urlList":[]}}